<?xml version="1.0" encoding="UTF-8"?>
<svg id="Layer_1" data-name="Layer 1" xmlns="http://www.w3.org/2000/svg" viewBox="0 0 494.91 442.35">
  <rect fill="#000000" x="58.61" y="38.56" width="373.4" height="373.4" rx="96.23" ry="96.23"/>
  <g>
    <circle fill="#ffffff" cx="323.44" cy="302" r="36.51"/>
    <path fill="#ffffff" d="m130.67,118.23v55.3c0,3.44,2.79,6.24,6.24,6.24h97.94c1.72,0,2.58,2.08,1.36,3.3l-102.9,102.9c-1.17,1.17-1.83,2.76-1.83,4.41v40.06c0,3.44,2.79,6.24,6.24,6.24h40.06c1.65,0,3.24-.66,4.41-1.83l172.55-172.55c1.17-1.17,1.83-2.76,1.83-4.41v-39.65c0-3.44-2.79-6.24-6.24-6.24h-213.42c-3.44,0-6.24,2.79-6.24,6.24Z"/>
  </g>
</svg>
